<svg width="49" height="48" viewBox="0 0 49 48" fill="none" xmlns="http://www.w3.org/2000/svg">
<g clip-path="url(#clip0_52892_1594)">
<g clip-path="url(#clip1_52892_1594)">
<path d="M41.9547 36.5672L26.0774 4.81262C25.7648 4.12502 25.4523 4 25.0772 4C24.7647 4 24.3896 4.12502 24.0146 4.75011C21.7642 8.31312 20.7641 12.4387 20.7641 16.7518C20.7641 22.7527 23.827 28.3785 28.3277 37.4423C28.8278 38.4425 29.2028 38.63 30.0779 38.63H41.0795C41.8922 38.63 42.3297 38.3175 42.3297 37.6924C42.3297 37.3798 42.2672 37.1923 41.9547 36.5672ZM18.8888 21.565C17.6387 19.6898 17.2636 19.5647 16.9511 19.5647C16.6385 19.5647 16.451 19.6898 15.8884 20.8149L7.94975 36.6922C7.69972 37.1923 7.63721 37.3798 7.63721 37.6299C7.63721 38.1299 8.07477 38.63 9.01241 38.63H20.2015C20.9516 38.63 21.5142 38.0049 21.8268 36.8172C22.2018 35.317 22.3268 34.0043 22.3268 32.4416C22.3268 28.066 20.389 23.8154 18.8888 21.565Z" fill="#357DE8"/>
</g>
</g>
<defs>
<clipPath id="clip0_52892_1594">
<rect width="48" height="48" fill="white" transform="translate(0.637207)"/>
</clipPath>
<clipPath id="clip1_52892_1594">
<rect width="34.6925" height="34.63" fill="white" transform="translate(7.63721 4)"/>
</clipPath>
</defs>
</svg>
